<svg xmlns="http://www.w3.org/2000/svg" viewBox="0 0 128 128" fill="none">
  <defs>
    <linearGradient id="bg" x1="12" y1="10" x2="112" y2="118" gradientUnits="userSpaceOnUse">
      <stop offset="0" stop-color="#FF7A00"/>
      <stop offset="0.5" stop-color="#F4B000"/>
      <stop offset="1" stop-color="#64C51C"/>
    </linearGradient>
    <filter id="shadow" x="-20%" y="-20%" width="140%" height="140%">
      <feDropShadow dx="0" dy="2" stdDeviation="2.5" flood-color="#000" flood-opacity="0.14"/>
    </filter>
  </defs>
  <rect x="4" y="4" width="120" height="120" rx="28" fill="url(#bg)"/>
  <g filter="url(#shadow)" fill="#fff">
    <path d="M64 26c18.6 0 35.9 9.4 46.1 25.1l-8.5 4.9C92.7 42.2 78.9 34 64 34c-23.2 0-42 18.8-42 42s18.8 42 42 42c13.7 0 26.6-6.7 34.5-17.9l8.1 5.5C96.8 119.5 81 128 64 128 36.4 128 14 105.6 14 78S36.4 26 64 26Z"/>
    <path d="M39 69h42.5c4.3 0 7.9 3.3 8.3 7.6l.1 1.2c.7 8.5-6 15.8-14.6 15.8H51.7c-8.6 0-15.3-7.3-14.6-15.8l.1-1.2c.4-4.3 4-7.6 8.3-7.6Z"/>
    <path d="M53 93.6h21.9v5.6c0 2.1-1.7 3.8-3.8 3.8H56.8c-2.1 0-3.8-1.7-3.8-3.8v-5.6Z"/>
    <path d="M89.2 77.7c8.3-.5 17.9 3.2 21.5 10.7-2.2 2.9-4.8 5.6-7.8 7.8-4.9-1.4-10.1-5.4-13.2-10.7-2.1-3.6-2.3-6.7-.5-7.8Z"/>
    <path d="M102.2 67.9c6.9.8 12.2 5.7 13.8 12-5.5.3-10.8-1.6-14.6-5.3-2.2-2.1-1.9-7 .8-6.7Z"/>
    <path d="M64 40.5l3.3 10.2c.7 2.3 2.5 4.1 4.8 4.8l10.2 3.3-10.2 3.3c-2.3.7-4.1 2.5-4.8 4.8L64 77.1l-3.3-10.2c-.7-2.3-2.5-4.1-4.8-4.8l-10.2-3.3 10.2-3.3c2.3-.7 4.1-2.5 4.8-4.8L64 40.5Z"/>
    <path d="M85.5 48.5l1.4 4.2c.4 1.1 1.2 1.9 2.3 2.3l4.2 1.4-4.2 1.4c-1.1.4-1.9 1.2-2.3 2.3l-1.4 4.2-1.4-4.2c-.4-1.1-1.2-1.9-2.3-2.3L77.6 56l4.2-1.4c1.1-.4 1.9-1.2 2.3-2.3l1.4-4.2Z"/>
    <path d="M48.6 60.5l1.1 3.5c.3.9 1 1.6 1.9 1.9l3.5 1.1-3.5 1.1c-.9.3-1.6 1-1.9 1.9l-1.1 3.5-1.1-3.5c-.3-.9-1-1.6-1.9-1.9l-3.5-1.1 3.5-1.1c.9-.3 1.6-1 1.9-1.9l1.1-3.5Z"/>
  </g>
</svg>
